# xmcd
#
# Track frame offsets:
#	150
#	13833
#	25402
#	38159
#	48918
#	62358
#	73593
#	86254
#	100057
#	113113
#	126760
#	140816
#	153185
#	165428
#	178207
#	192275
#	205648
#	217936
#	229009
#	241321
#	254700
#	265919
#
# Disc length: 3711 seconds
#
# Revision: 0
# Processed by: cddbd v1.4PL0 Copyright (c) Steve Scherf et al.
# Submitted via: dBpowerAMP V4.0
#
DISCID=2c0e7d16
DTITLE=Various Artist -  Early Country Volume 4
DYEAR=2000
DGENRE=Country
TTITLE0=Adolph Hofner_-_Swing With The Music
TTITLE1=Spade Cooley - -_Shame On You
TTITLE2=Foy Willing_-_Texas Blue
TTITLE3=Ernest Tubb_-_Try Me One More Time
TTITLE4=Red Foley_-_Smoke On The Water
TTITLE5=Floyd Tillman_-_They Took The Stars Out Of Heaven
TTITLE6=Jack Guthrie_-_Oklahoma Hills
TTITLE7=Smiley Burnette_-_Minnie The Moocher At The Morgue
TTITLE8=Patsy Montana_-_I'm An Old Cowhand
TTITLE9=Merle Travis_-_Divorce Me C.O.D.
TTITLE10=Bill Monroe_-_Blue Moon Of Kentucky
TTITLE11=Delmore Brothers_-_Freight Train Boogie
TTITLE12=Lightcrust Dough Boys_-_Oh! Susannah
TTITLE13=Cowboy Copas_-_Filipino Baby
TTITLE14=Red Foley_-_New Jole Blon
TTITLE15=Tex Williams_-_Smoke Smoke Smoke (The Cigarette)
TTITLE16=Roy Acuff_-_I Saw The Light
TTITLE17=Hank Thompson_-_Humpty Dumpty Heart
TTITLE18=Eddy Arnold_-_I'll Hold You In My Heart
TTITLE19=Merle Travis_-_So Firm, So Round, So Fully Packed
TTITLE20=Jack Guthrie_-_Oakie Boogie
TTITLE21=Hank Williams_-_Move It On Over
EXTD=
EXTT0=
EXTT1=
EXTT2=
EXTT3=
EXTT4=
EXTT5=
EXTT6=
EXTT7=
EXTT8=
EXTT9=
EXTT10=
EXTT11=
EXTT12=
EXTT13=
EXTT14=
EXTT15=
EXTT16=
EXTT17=
EXTT18=
EXTT19=
EXTT20=
EXTT21=
PLAYORDER=
